<?xml version="1.0" encoding="UTF-8" standalone="no"?>
<!-- Created with Inkscape (http://www.inkscape.org/) -->

<svg
   xmlns:dc="http://purl.org/dc/elements/1.1/"
   xmlns:cc="http://creativecommons.org/ns#"
   xmlns:rdf="http://www.w3.org/1999/02/22-rdf-syntax-ns#"
   xmlns:svg="http://www.w3.org/2000/svg"
   xmlns="http://www.w3.org/2000/svg"
   xmlns:sodipodi="http://sodipodi.sourceforge.net/DTD/sodipodi-0.dtd"
   xmlns:inkscape="http://www.inkscape.org/namespaces/inkscape"
   id="svg4776"
   sodipodi:docname="@-Icon-White-on-Black.svg"
   viewBox="0 0 300 300"
   version="1.1"
   inkscape:version="0.48+devel_64bit r13443"
   width="100%"
   height="100%">
  <title
     id="title3415">@ Icon - White on Black</title>
  <defs
     id="defs16" />
  <sodipodi:namedview
     id="base"
     bordercolor="#666666"
     inkscape:pageshadow="2"
     inkscape:window-y="-8"
     pagecolor="#ffffff"
     inkscape:window-height="1177"
     inkscape:window-maximized="1"
     inkscape:zoom="1.4"
     inkscape:window-x="-8"
     showgrid="false"
     borderopacity="1.0"
     inkscape:current-layer="layer1"
     inkscape:cx="72.528434"
     inkscape:cy="152.99663"
     inkscape:window-width="1920"
     inkscape:pageopacity="0.0"
     inkscape:document-units="px" />
  <g
     id="layer1"
     inkscape:label="Layer 1"
     inkscape:groupmode="layer"
     transform="translate(-231.54,-375.82)">
    <path
       id="path3794"
       sodipodi:rx="170.99677"
       sodipodi:ry="137.74739"
       style="color:#000000;fill:#000000;fill-opacity:1"
       sodipodi:type="arc"
       d="M 484.49081,498.52267 A 170.99677,137.74739 0 0 1 313.49405,636.27007 170.99677,137.74739 0 0 1 142.49728,498.52267 170.99677,137.74739 0 0 1 313.49405,360.77528 170.99677,137.74739 0 0 1 484.49081,498.52267 Z"
       transform="matrix(0.83895,0,0,1.0414,118.53417,6.6584867)"
       sodipodi:cy="498.52267"
       sodipodi:cx="313.49405" />
    <path
       inkscape:connector-curvature="0"
       style="fill:#ffffff;fill-rule:evenodd"
       d="m 383.68591,423.76616 c -14.90681,0 -29.00914,2.61202 -42.17513,7.84276 -13.10937,5.20823 -24.52882,12.40461 -34.14396,21.54814 -9.61119,9.1398 -17.19498,19.97592 -22.71388,32.40182 -5.55052,12.42191 -8.31566,25.86387 -8.31566,40.20476 0,15.04803 2.62579,28.90917 7.92873,41.48662 5.27997,12.52302 12.71912,23.35423 22.27919,32.36771 9.47475,8.93302 20.83925,15.87072 33.95695,20.77411 0.002,8.2e-4 0.004,8.2e-4 0.006,0.002 13.16481,4.99518 27.43595,7.4799 42.70132,7.4799 7.18677,0 14.18175,-0.30353 20.9861,-0.91332 6.88752,-0.54165 14.25326,-1.6194 22.11013,-3.22312 a 4.2280351,3.986294 0 0 0 3.33321,-3.8958 l 0,-15.96121 a 4.2280351,3.986294 0 0 0 -5.38826,-3.83232 c -6.44807,1.73698 -13.22103,3.00797 -20.32364,3.80864 a 4.2280351,3.986294 0 0 0 -0.005,8.2e-4 c -7.07522,0.80635 -13.93878,1.2089 -20.5932,1.2089 -12.01105,1e-5 -22.98883,-1.86989 -33.03387,-5.57272 a 4.2280351,3.986294 0 0 0 -0.0258,-0.009 c -10.02669,-3.62498 -18.69678,-8.98204 -26.15157,-16.15258 -7.12634,-6.86061 -12.64613,-15.08843 -16.59154,-24.81391 -3.93302,-9.76956 -5.9254,-20.58367 -5.9254,-32.52877 0,-11.07133 2.05034,-21.40967 6.13826,-31.11899 4.18392,-9.82314 9.87273,-18.15182 17.09386,-25.10193 a 4.2280351,3.986294 0 0 0 0.016,-0.0152 c 7.15928,-6.96309 15.69775,-12.50333 25.72782,-16.6585 9.99815,-4.10902 21.02776,-6.18288 33.22884,-6.18288 12.66948,0 23.83841,1.87985 33.59786,5.56042 a 4.2280351,3.986294 0 0 0 0.0268,0.009 c 9.7944,3.62273 17.87158,8.77256 24.41681,15.50456 6.57431,6.76191 11.55449,14.8581 14.96322,24.4283 a 4.2280351,3.986294 0 0 0 0.009,0.0255 c 3.48397,9.56867 5.25499,20.28367 5.25499,32.20001 0,6.34072 -0.83576,13.66764 -2.54443,21.94228 a 4.2280351,3.986294 0 0 0 -0.006,0.0284 c -1.40792,7.07956 -3.44977,12.95322 -5.97614,17.767 l -22.12106,0 0,-90.65496 a 4.2280351,3.986294 0 0 0 -4.22646,-3.98579 l -18.95593,0 a 4.2280351,3.986294 0 0 0 -4.14291,3.21081 c -3.1233,-1.26427 -6.17422,-2.37186 -9.08556,-3.15776 -4.93118,-1.40749 -10.45844,-2.0758 -16.57561,-2.0758 -14.70302,0 -27.74094,5.67905 -38.17347,16.47471 -10.5701,10.93801 -15.76694,25.6432 -15.76694,43.37294 0,17.66751 4.12024,31.94045 12.8286,42.36773 a 4.2280351,3.986294 0 0 0 0.013,0.0152 c 8.73787,10.35903 20.95904,15.77931 35.37638,15.7793 7.5065,10e-6 14.35814,-1.29645 20.39823,-3.97633 4.09442,-1.81662 8.25412,-4.18997 12.48941,-7.05355 l 1.74072,7.04882 a 4.2280351,3.986294 0 0 0 4.11705,3.08196 l 52.45532,0 a 4.2280351,3.986294 0 0 0 3.46155,-1.69778 c 6.21638,-8.36161 10.98149,-17.62781 14.28285,-27.73765 3.38647,-10.12706 5.07991,-20.62097 5.07991,-31.42501 0,-14.84949 -2.32771,-28.4332 -7.04444,-40.68701 -4.62604,-12.29909 -11.37197,-22.92602 -20.2192,-31.73957 -8.85928,-8.82576 -19.74283,-15.67653 -32.48861,-20.51456 -12.81587,-4.86462 -27.28088,-7.25725 -43.30412,-7.25725 z m -1.90684,68.55446 c 4.20857,0 8.09516,0.45164 11.69067,1.33302 a 4.2280351,3.986294 0 0 0 0.0785,0.018 c 2.96067,0.66993 6.45095,1.87058 10.23046,3.39271 l 0,53.4554 c -3.69166,2.49989 -7.67216,4.76755 -12.09153,6.69543 -4.83745,2.11024 -9.52734,3.11607 -14.20029,3.11607 -8.82169,0 -14.30255,-2.49125 -18.10846,-7.62295 -3.87731,-5.30326 -6.15716,-13.75225 -6.15716,-25.48374 0,-11.8546 2.75888,-20.45068 7.75963,-26.26347 5.03436,-5.85187 11.52879,-8.64048 20.79811,-8.64048 z"
       id="path3381" />
  </g>
  <metadata
     id="metadata14">
    <rdf:RDF>
      <cc:Work>
        <dc:format>image/svg+xml</dc:format>
        <dc:type
           rdf:resource="http://purl.org/dc/dcmitype/StillImage" />
        <cc:license
           rdf:resource="http://creativecommons.org/publicdomain/zero/1.0/" />
        <dc:publisher>
          <cc:Agent
             rdf:about="http://openclipart.org/">
            <dc:title>Rygle</dc:title>
          </cc:Agent>
        </dc:publisher>
        <dc:title>@ Icon - White on Black</dc:title>
        <dc:date>2015-03-29</dc:date>
        <dc:description>@ Icon - White on Black</dc:description>
        <dc:source></dc:source>
        <dc:creator>
          <cc:Agent>
            <dc:title>Rygle</dc:title>
          </cc:Agent>
        </dc:creator>
        <dc:subject>
          <rdf:Bag>
            <rdf:li>Icon</rdf:li>
            <rdf:li>internet</rdf:li>
            <rdf:li>email</rdf:li>
            <rdf:li>@</rdf:li>
            <rdf:li>communication</rdf:li>
            <rdf:li>communicate</rdf:li>
            <rdf:li>address</rdf:li>
          </rdf:Bag>
        </dc:subject>
        <dc:rights>
          <cc:Agent>
            <dc:title>Public Domain</dc:title>
          </cc:Agent>
        </dc:rights>
        <dc:contributor>
          <cc:Agent>
            <dc:title>Rygle</dc:title>
          </cc:Agent>
        </dc:contributor>
      </cc:Work>
      <cc:License
         rdf:about="http://creativecommons.org/publicdomain/zero/1.0/">
        <cc:permits
           rdf:resource="http://creativecommons.org/ns#Reproduction" />
        <cc:permits
           rdf:resource="http://creativecommons.org/ns#Distribution" />
        <cc:permits
           rdf:resource="http://creativecommons.org/ns#DerivativeWorks" />
      </cc:License>
    </rdf:RDF>
  </metadata>
</svg>
